<?xml version="1.0" encoding="utf-8"?>
<svg version="1.1" width="512" height="512" x="0" y="0" viewBox="0 0 512 512" style="enable-background:new 0 0 512 512" class="" xmlns="http://www.w3.org/2000/svg">
  <path style="stroke: rgb(0, 0, 0); fill: rgb(176, 177, 188);" d="M 145.859 191.226 L 127.027 209.344 L 126.42 267.661 L 147.681 268.227 L 145.859 191.226 Z"/>
  <path style="stroke: rgb(0, 0, 0); fill: rgb(176, 177, 188);" d="M 363.933 269.408 L 345.101 251.29 L 344.494 192.973 L 365.755 192.407 L 363.933 269.408 Z" transform="matrix(-1, 0, 0, -1, 710.248993, 461.814987)"/>
  <g transform="matrix(1, 0, 0, 1, -1.149271, -4.597082)">
    <rect x="240.197" y="65.381" width="21.261" height="433.275" style="stroke: rgb(0, 0, 0); fill: rgb(176, 177, 188);"/>
    <path style="stroke: rgb(0, 0, 0); fill: rgb(176, 177, 188);" d="M 216.061 66.827 C 216.061 66.827 284.444 68.662 284.444 67.744 C 284.444 66.826 277.838 42.047 252.973 42.964 C 228.107 43.882 223.443 45.718 216.061 66.827 Z"/>
    <path d="M 145.382 158.471 L 348.803 158.471 L 348.803 422.229 L 145.382 422.229 Z" style="stroke: rgb(0, 0, 0); fill: rgb(0, 255, 0);"/>
    <rect x="206.293" y="103.307" width="89.643" height="37.351" style="stroke: rgb(0, 0, 0); fill: rgb(0, 255, 0);" rx="10.918" ry="10.918"/>
    <rect x="179.286" y="488.6" width="141.36" height="16.664" style="stroke: rgb(0, 0, 0); fill: rgb(176, 177, 188);"/>
    <path d="M 247.518 126.036 C 247.518 136.509 239.028 144.999 228.555 144.999 C 218.082 144.999 209.592 136.509 209.592 126.036 C 209.592 115.563 218.082 107.073 228.555 107.073 C 239.028 107.073 247.518 115.563 247.518 126.036 Z" style="stroke: rgb(0, 0, 0); fill: rgb(255, 255, 0);"/>
    <ellipse style="stroke: rgb(0, 0, 0); fill: rgb(255, 0, 0);" cx="274.825" cy="126.176" rx="18.389" ry="18.389"/>
    <polygon style="stroke: rgb(0, 0, 0); fill: rgb(176, 177, 188);" points="64.536 153.009 219.241 96.53 212.488 73.815 55.327 129.067"/>
    <polygon style="stroke: rgb(0, 0, 0); fill: rgb(176, 177, 188);" points="290.761 73.508 445.466 129.987 438.713 152.702 281.552 97.45" transform="matrix(-1, 0, 0, -1, 727.018005, 226.209999)"/>
  </g>
</svg>