<?xml version="1.0" encoding="utf-8"?>
<svg version="1.1" width="512" height="512" x="0" y="0" viewBox="0 0 512 512" style="enable-background:new 0 0 512 512" class="" xmlns="http://www.w3.org/2000/svg">
  <path style="stroke: rgb(0, 0, 0); fill: rgb(176, 177, 188);" d="M 145.859 191.226 L 127.027 209.344 L 126.42 267.661 L 147.681 268.227 L 145.859 191.226 Z"/>
  <path style="stroke: rgb(0, 0, 0); fill: rgb(176, 177, 188);" d="M 363.933 269.408 L 345.101 251.29 L 344.494 192.973 L 365.755 192.407 L 363.933 269.408 Z" transform="matrix(-1, 0, 0, -1, 710.248993, 461.814987)"/>
  <g transform="matrix(1, 0, 0, 1, -1.149271, -4.597082)">
    <rect x="240.197" y="65.381" width="21.261" height="433.275" style="stroke: rgb(0, 0, 0); fill: rgb(176, 177, 188);"/>
    <path style="stroke: rgb(0, 0, 0); fill: rgb(176, 177, 188);" d="M 207.466 66.827 C 207.466 66.827 293.039 68.662 293.039 67.744 C 293.039 66.826 284.772 42.047 253.657 42.964 C 222.54 43.882 216.704 45.718 207.466 66.827 Z"/>
    <path d="M 145.382 158.471 L 348.803 158.471 L 348.803 422.229 L 145.382 422.229 Z" style="stroke: rgb(0, 0, 0); fill: rgb(176, 177, 188);"/>
    <rect x="206.293" y="103.307" width="89.643" height="37.351" style="stroke: rgb(0, 0, 0); fill: rgb(176, 177, 188);" rx="10.918" ry="10.918"/>
    <rect x="179.286" y="488.6" width="141.36" height="16.664" style="stroke: rgb(0, 0, 0); fill: rgb(176, 177, 188);"/>
    <path d="M 247.518 126.036 C 247.518 136.509 239.028 144.999 228.555 144.999 C 218.082 144.999 209.592 136.509 209.592 126.036 C 209.592 115.563 218.082 107.073 228.555 107.073 C 239.028 107.073 247.518 115.563 247.518 126.036 Z" style="stroke: rgb(0, 0, 0); fill: rgb(176, 177, 188);"/>
    <ellipse style="stroke: rgb(0, 0, 0); fill: rgb(176, 177, 188);" cx="274.825" cy="126.176" rx="18.389" ry="18.389"/>
    <polyline style="fill: rgb(216, 216, 216); stroke: rgb(0, 0, 0);" points="209.878 126.151 247.941 126.151"/>
    <polyline style="fill: rgb(216, 216, 216); stroke: rgb(0, 0, 0);" points="255.921 126.151 292.142 126.151"/>
    <polygon style="stroke: rgb(0, 0, 0); fill: rgb(176, 177, 188);" points="64.382 152.549 219.087 96.07 212.334 73.355 55.173 128.607"/>
    <polygon style="stroke: rgb(0, 0, 0); fill: rgb(176, 177, 188);" points="290.607 73.048 445.312 129.527 438.559 152.242 281.398 96.99" transform="matrix(-1, 0, 0, -1, 726.710022, 225.290001)"/>
  </g>
</svg>